<svg xmlns="http://www.w3.org/2000/svg" xmlns:xlink="http://www.w3.org/1999/xlink" width="1000" height="1000"
	viewBox="0 0 264.58332 264.58332">
	<path
		d="M78.566167 40.349457c-3.492125-.01137-7.113805.275791-10.859858.973349-10.592693 1.972491-20.266503 7.651482-27.956178 15.492389a16.965595 16.949345 0 0 0 .245923 23.969377 16.965595 16.949345 0 0 0 23.992351-.244119c3.82546-3.900706 6.708687-5.290927 9.934564-5.891626 5.644491-1.051075 12.83366.372893 22.712248 3.330207 9.878593 2.957318 22.008903 7.351651 36.738783 7.351651 14.72986 0 26.85811-4.394333 36.7367-7.351651 9.8786-2.957314 17.06774-4.381282 22.71225-3.330207 4.49165.836405 8.97267 3.410895 14.67518 11.702054 15.19996-8.345423 29.95728-11.114474 42.82259 9.928683-3.91852-10.138187-8.24184-18.99295-13.2117-26.661442-9.41255-14.523592-22.35874-25.370079-38.06787-28.295316-14.98413-2.79023-27.97616.982942-38.67014 4.18436-10.69401 3.201421-19.52868 5.92546-26.99701 5.92546-7.46835 0-16.3051-2.724039-26.99909-5.92546-8.020504-2.401065-17.332267-5.123606-27.808743-5.157709ZM21.642023 114.16317a16.965595 16.949345 0 0 0-2.912435.51166 16.965595 16.949345 0 0 0-12.0024111 11.97843c-1.517073 5.64569-2.7738364 11.03418-3.7856351 16.20445-.7007661 24.09417 13.1093452 30.57307 31.2161122 31.83581-.518301-9.00648.788319-22.31036 5.340314-39.25044a16.965595 16.949345 0 0 0-11.98628-20.76461 16.965595 16.949345 0 0 0-5.869665-.5153z"
		style="color:#000;fill:#6c70f4;fill-opacity:1;stroke-width:1.00773;stroke-linecap:round;stroke-linejoin:round;-inkscape-stroke:none" />
	<path
		d="M227.15675 80.113118c-6.38516-.03207-12.97957 2.570684-19.65862 6.237763.37119.539662.74716 1.101916 1.12904 1.691129 6.24861 9.641633 12.74662 25.53489 18.62233 47.40107a16.965595 16.949345 0 0 0 20.78244 11.9748 16.965595 16.949345 0 0 0 11.98835-20.76462c-3.01636-11.22525-6.19669-21.31086-9.69957-30.373696-7.21213-11.796543-15.01795-16.125541-23.16397-16.166446ZM2.9415418 142.85771c-3.35709569 17.15456-3.9010348 31.80384-1.3202302 44.59814 3.358608 16.65043 14.6045704 31.31961 30.1673224 35.47779 17.796158 4.75493 32.313679-4.42189 42.951277-13.06838 10.637618-8.64649 18.829805-18.70318 23.805298-25.37578.149256-.20015 4.473551-3.1976 11.667431-4.67625 7.19389-1.47864 16.18016-1.91598 23.16136-1.91598 6.98117 0 15.96537.43734 23.15926 1.91598 7.19388 1.47865 11.51766 4.4761 11.66692 4.67625 4.97549 6.6726 13.16771 16.72929 23.8053 25.37578s25.1572 17.82331 42.95336 13.06838c14.00277-3.74136 24.87694-16.15402 28.97785-30.56524a16.965595 16.949345 0 0 0-11.67887-20.93794 16.965595 16.949345 0 0 0-20.9575 11.66821c-1.81096 6.36393-2.82036 6.47432-5.10845 7.08567-.30963.0827-5.76016-.91419-12.77199-6.61356-7.01179-5.69937-14.15099-14.1595-18.00961-19.33426-8.68492-11.64722-21.00825-15.35778-32.03826-17.62491-11.03002-2.26714-21.84405-2.61243-29.99801-2.61243-8.15397 0-18.96853.34529-29.99851 2.61243-11.030023 2.26713-23.354951 5.97769-32.039839 17.62491-3.858639 5.17477-10.998345 13.63489-18.01015 19.33426-7.011825 5.69937-12.4603 6.69628-12.769871 6.61356-2.543007-.67946-3.959904-.9413-5.671168-9.42483-.348437-1.7273-.594309-3.76338-.726808-6.06599-18.106767-1.26274-31.9168783-7.74164-31.2161122-31.83581Z"
		style="color:#000;fill:#f72585;fill-opacity:1;stroke-width:1.00773;stroke-linecap:round;stroke-linejoin:round;-inkscape-stroke:none" />
	<path
		d="M21.642023 114.16317a16.965595 16.949345 0 0 0-2.912435.51166 16.965595 16.949345 0 0 0-12.0024111 11.97843c-1.517073 5.64569-2.7738364 11.03418-3.7856351 16.20445-.7007661 24.09417 13.1093452 30.57307 31.2161122 31.83581-.518301-9.00648.788319-22.31036 5.340314-39.25044a16.965595 16.949345 0 0 0-11.98628-20.76461 16.965595 16.949345 0 0 0-5.869665-.5153z"
		style="color:#000;fill:url(#a);fill-opacity:1;stroke-width:1.00773;stroke-linecap:round;stroke-linejoin:round;-inkscape-stroke:none" />
	<path
		d="M227.15675 80.113118c-6.38516-.03207-12.97957 2.570684-19.65862 6.237763.37119.539662.74716 1.101916 1.12904 1.691129 6.24861 9.641633 12.74662 25.53489 18.62233 47.40107a16.965595 16.949345 0 0 0 20.78244 11.9748 16.965595 16.949345 0 0 0 11.98835-20.76462c-3.01636-11.22525-6.19669-21.31086-9.69957-30.373696-7.21213-11.796543-15.01795-16.125541-23.16397-16.166446Z"
		style="color:#000;fill:url(#b);fill-opacity:1;stroke-width:1.00773;stroke-linecap:round;stroke-linejoin:round;-inkscape-stroke:none" />
	<defs>
		<linearGradient id="c">
			<stop offset="0" style="stop-color:#bf00a9;stop-opacity:1" />
			<stop offset="1" style="stop-color:#551bed;stop-opacity:0" />
		</linearGradient>
		<linearGradient id="d">
			<stop offset="0" style="stop-color:#741bed;stop-opacity:1" />
			<stop offset="1" style="stop-color:#551bed;stop-opacity:0" />
		</linearGradient>
		<linearGradient xlink:href="#d" id="b" x1="3096.582" x2="3181.8181" y1="304.24805" y2="548.12836"
			gradientTransform="matrix(.26675542 0 0 .26649991 -618.53189 5.2688036)" gradientUnits="userSpaceOnUse" />
		<linearGradient xlink:href="#c" id="a" x1="2446.7715" x2="2486.6311" y1="635.74023" y2="430.48129"
			gradientTransform="matrix(.26675542 0 0 .26649991 -618.53189 5.2688036)" gradientUnits="userSpaceOnUse" />
	</defs>
</svg>