<?xml version="1.0" encoding="UTF-8" standalone="no"?>
<svg
   width="1000"
   height="1000"
   viewBox="0 0 264.58332 264.58332"
   version="1.1"
   id="svg28"
   sodipodi:docname="icon - Copy.svg"
   inkscape:version="1.1 (c68e22c387, 2021-05-23)"
   xmlns:inkscape="http://www.inkscape.org/namespaces/inkscape"
   xmlns:sodipodi="http://sodipodi.sourceforge.net/DTD/sodipodi-0.dtd"
   xmlns:xlink="http://www.w3.org/1999/xlink"
   xmlns="http://www.w3.org/2000/svg"
   xmlns:svg="http://www.w3.org/2000/svg">
  <sodipodi:namedview
     id="namedview30"
     pagecolor="#505050"
     bordercolor="#eeeeee"
     borderopacity="1"
     inkscape:pageshadow="0"
     inkscape:pageopacity="0"
     inkscape:pagecheckerboard="0"
     showgrid="false"
     inkscape:object-paths="false"
     inkscape:snap-intersection-paths="false"
     inkscape:object-nodes="true"
     inkscape:snap-nodes="true"
     inkscape:zoom="0.52891587"
     inkscape:cx="909.40738"
     inkscape:cy="536.00207"
     inkscape:window-width="1920"
     inkscape:window-height="1017"
     inkscape:window-x="1912"
     inkscape:window-y="-8"
     inkscape:window-maximized="1"
     inkscape:current-layer="svg28" />
  <defs
     id="defs14">
    <inkscape:path-effect
       effect="dashed_stroke"
       id="path-effect9265"
       is_visible="true"
       lpeversion="1"
       numberdashes="2"
       holefactor="-0.15"
       splitsegments="true"
       halfextreme="true"
       unifysegment="true"
       message="Add &lt;b&gt;&quot;Fill Between Many LPE&quot;&lt;/b&gt; to add fill." />
    <inkscape:path-effect
       effect="dashed_stroke"
       id="path-effect9117"
       is_visible="true"
       lpeversion="1"
       numberdashes="2"
       holefactor="-0.88"
       splitsegments="true"
       halfextreme="true"
       unifysegment="true"
       message="Add &lt;b&gt;&quot;Fill Between Many LPE&quot;&lt;/b&gt; to add fill." />
    <inkscape:path-effect
       effect="dashed_stroke"
       id="path-effect8969"
       is_visible="true"
       lpeversion="1"
       numberdashes="2"
       holefactor="-0.61"
       splitsegments="true"
       halfextreme="true"
       unifysegment="true"
       message="Add &lt;b&gt;&quot;Fill Between Many LPE&quot;&lt;/b&gt; to add fill." />
    <inkscape:path-effect
       effect="dashed_stroke"
       id="path-effect8927"
       is_visible="true"
       lpeversion="1"
       numberdashes="2"
       holefactor="-0.15"
       splitsegments="true"
       halfextreme="true"
       unifysegment="true"
       message="Add &lt;b&gt;&quot;Fill Between Many LPE&quot;&lt;/b&gt; to add fill." />
    <linearGradient
       id="a">
      <stop
         offset="0"
         style="stop-color:#bf00a9;stop-opacity:1"
         id="stop2" />
      <stop
         offset="1"
         style="stop-color:#551bed;stop-opacity:0"
         id="stop4" />
    </linearGradient>
    <linearGradient
       id="b">
      <stop
         offset="0"
         style="stop-color:#741bed;stop-opacity:1"
         id="stop7" />
      <stop
         offset="1"
         style="stop-color:#551bed;stop-opacity:0"
         id="stop9" />
    </linearGradient>
    <linearGradient
       xlink:href="#a"
       id="d"
       x1="87.431641"
       x2="100.85156"
       y1="697.16406"
       y2="505.89062"
       gradientUnits="userSpaceOnUse" />
    <linearGradient
       xlink:href="#b"
       id="c"
       x1="844.75781"
       x2="904.0332"
       y1="343.68164"
       y2="529.61523"
       gradientUnits="userSpaceOnUse" />
    <linearGradient
       inkscape:collect="always"
       xlink:href="#b"
       id="linearGradient21436"
       x1="3096.582"
       y1="304.24805"
       x2="3181.8181"
       y2="548.12836"
       gradientUnits="userSpaceOnUse"
       gradientTransform="matrix(0.26675542,0,0,0.26649991,-618.53189,5.2688036)" />
    <linearGradient
       inkscape:collect="always"
       xlink:href="#a"
       id="linearGradient21572"
       x1="2446.7715"
       y1="635.74023"
       x2="2486.6311"
       y2="430.48129"
       gradientUnits="userSpaceOnUse"
       gradientTransform="matrix(0.26675542,0,0,0.26649991,-618.53189,5.2688036)" />
  </defs>
  <path
     style="fill:none;stroke:#ffffff;stroke-width:33.6549;stroke-linecap:round;stroke-linejoin:round;stroke-miterlimit:4;stroke-dasharray:none;stroke-opacity:1"
     d="m 354.48864,69.135591 c 5.71069,-5.828592 11.93793,-9.338403 18.79096,-10.615746 20.46069,-3.813688 40.03177,10.322056 62.04926,10.322056 22.01748,0 41.58856,-14.135741 62.04925,-10.322056 20.3263,3.788639 35.14726,27.217043 47.31375,72.537425 m 3.95171,56.27743 c -2.93188,10.31288 -8.82574,16.52994 -16.90486,18.69065 -17.95835,4.80286 -39.60952,-20.2029 -48.37172,-31.96508 -8.76222,-11.76218 -33.02621,-13.31878 -48.03813,-13.31878 -15.01193,0 -39.27592,1.5566 -48.03813,13.31878 -8.76221,11.76218 -30.41338,36.76794 -48.37172,31.96508 -17.95836,-4.80286 -25.11963,-29.6477 -12.95315,-74.96808"
     id="path3241"
     sodipodi:nodetypes="cszsccszzzzc" />
  <path
     id="path16925"
     style="color:#000000;fill:#6c70f4;fill-opacity:1;stroke-width:1.00773;stroke-linecap:round;stroke-linejoin:round;-inkscape-stroke:none"
     d="m 78.566167,40.349457 c -3.492125,-0.01137 -7.113805,0.275791 -10.859858,0.973349 -10.592693,1.972491 -20.266503,7.651482 -27.956178,15.492389 a 16.965595,16.949345 0 0 0 0.245923,23.969377 16.965595,16.949345 0 0 0 23.992351,-0.244119 c 3.82546,-3.900706 6.708687,-5.290927 9.934564,-5.891626 5.644491,-1.051075 12.83366,0.372893 22.712248,3.330207 9.878593,2.957318 22.008903,7.351651 36.738783,7.351651 14.72986,0 26.85811,-4.394333 36.7367,-7.351651 9.8786,-2.957314 17.06774,-4.381282 22.71225,-3.330207 4.49165,0.836405 8.97267,3.410895 14.67518,11.702054 15.19996,-8.345423 29.95728,-11.114474 42.82259,9.928683 -3.91852,-10.138187 -8.24184,-18.99295 -13.2117,-26.661442 -9.41255,-14.523592 -22.35874,-25.370079 -38.06787,-28.295316 -14.98413,-2.79023 -27.97616,0.982942 -38.67014,4.18436 -10.69401,3.201421 -19.52868,5.92546 -26.99701,5.92546 -7.46835,0 -16.3051,-2.724039 -26.99909,-5.92546 C 98.354406,43.106101 89.042643,40.38356 78.566167,40.349457 Z M 21.642023,114.16317 a 16.965595,16.949345 0 0 0 -2.912435,0.51166 16.965595,16.949345 0 0 0 -12.0024111,11.97843 c -1.517073,5.64569 -2.7738364,11.03418 -3.7856351,16.20445 -0.7007661,24.09417 13.1093452,30.57307 31.2161122,31.83581 -0.518301,-9.00648 0.788319,-22.31036 5.340314,-39.25044 a 16.965595,16.949345 0 0 0 -11.98628,-20.76461 16.965595,16.949345 0 0 0 -5.869665,-0.5153 z" />
  <path
     id="path16935"
     style="color:#000000;fill:#f72585;fill-opacity:1;stroke-width:1.00773;stroke-linecap:round;stroke-linejoin:round;-inkscape-stroke:none"
     d="m 227.15675,80.113118 c -6.38516,-0.03207 -12.97957,2.570684 -19.65862,6.237763 0.37119,0.539662 0.74716,1.101916 1.12904,1.691129 6.24861,9.641633 12.74662,25.53489 18.62233,47.40107 a 16.965595,16.949345 0 0 0 20.78244,11.9748 16.965595,16.949345 0 0 0 11.98835,-20.76462 C 257.00393,115.42801 253.8236,105.3424 250.32072,96.279564 243.10859,84.483021 235.30277,80.154023 227.15675,80.113118 Z M 2.9415418,142.85771 c -3.35709569,17.15456 -3.9010348,31.80384 -1.3202302,44.59814 3.358608,16.65043 14.6045704,31.31961 30.1673224,35.47779 17.796158,4.75493 32.313679,-4.42189 42.951277,-13.06838 10.637618,-8.64649 18.829805,-18.70318 23.805298,-25.37578 0.149256,-0.20015 4.473551,-3.1976 11.667431,-4.67625 7.19389,-1.47864 16.18016,-1.91598 23.16136,-1.91598 6.98117,0 15.96537,0.43734 23.15926,1.91598 7.19388,1.47865 11.51766,4.4761 11.66692,4.67625 4.97549,6.6726 13.16771,16.72929 23.8053,25.37578 10.63759,8.64649 25.1572,17.82331 42.95336,13.06838 14.00277,-3.74136 24.87694,-16.15402 28.97785,-30.56524 a 16.965595,16.949345 0 0 0 -11.67887,-20.93794 16.965595,16.949345 0 0 0 -20.9575,11.66821 c -1.81096,6.36393 -2.82036,6.47432 -5.10845,7.08567 -0.30963,0.0827 -5.76016,-0.91419 -12.77199,-6.61356 -7.01179,-5.69937 -14.15099,-14.1595 -18.00961,-19.33426 -8.68492,-11.64722 -21.00825,-15.35778 -32.03826,-17.62491 -11.03002,-2.26714 -21.84405,-2.61243 -29.99801,-2.61243 -8.15397,0 -18.96853,0.34529 -29.99851,2.61243 -11.030023,2.26713 -23.354951,5.97769 -32.039839,17.62491 -3.858639,5.17477 -10.998345,13.63489 -18.01015,19.33426 -7.011825,5.69937 -12.4603,6.69628 -12.769871,6.61356 -2.543007,-0.67946 -3.959904,-0.9413 -5.671168,-9.42483 -0.348437,-1.7273 -0.594309,-3.76338 -0.726808,-6.06599 C 16.050887,173.43078 2.2407757,166.95188 2.9415418,142.85771 Z" />
  <path
     style="color:#000000;fill:url(#linearGradient21572);fill-opacity:1;stroke-width:1.00773;stroke-linecap:round;stroke-linejoin:round;-inkscape-stroke:none"
     d="m 21.642023,114.16317 a 16.965595,16.949345 0 0 0 -2.912435,0.51166 16.965595,16.949345 0 0 0 -12.0024111,11.97843 c -1.517073,5.64569 -2.7738364,11.03418 -3.7856351,16.20445 -0.7007661,24.09417 13.1093452,30.57307 31.2161122,31.83581 -0.518301,-9.00648 0.788319,-22.31036 5.340314,-39.25044 a 16.965595,16.949345 0 0 0 -11.98628,-20.76461 16.965595,16.949345 0 0 0 -5.869665,-0.5153 z"
     id="path21163" />
  <path
     style="color:#000000;fill:url(#linearGradient21436);fill-opacity:1;stroke-width:1.00773;stroke-linecap:round;stroke-linejoin:round;-inkscape-stroke:none"
     d="m 227.15675,80.113118 c -6.38516,-0.03207 -12.97957,2.570684 -19.65862,6.237763 0.37119,0.539662 0.74716,1.101916 1.12904,1.691129 6.24861,9.641633 12.74662,25.53489 18.62233,47.40107 a 16.965595,16.949345 0 0 0 20.78244,11.9748 16.965595,16.949345 0 0 0 11.98835,-20.76462 C 257.00393,115.42801 253.8236,105.3424 250.32072,96.279564 243.10859,84.483021 235.30277,80.154023 227.15675,80.113118 Z"
     id="path21263" />
</svg>
